<svg xmlns="http://www.w3.org/2000/svg" xmlns:xlink="http://www.w3.org/1999/xlink" width="249" height="46" viewBox="0 0 249 46">
  <defs>
    <linearGradient id="linear-gradient" x1="0.5" x2="0.5" y2="1" gradientUnits="objectBoundingBox">
      <stop offset="0" stop-color="red"/>
      <stop offset="1" stop-color="#0e0c0c"/>
    </linearGradient>
  </defs>
  <g id="Adopt_Button" data-name="Adopt Button" transform="translate(98 15)" fill="url(#linear-gradient)">
    <path d="M 143.9989929199219 29.99963569641113 L -89.9998779296875 29.99963569641113 L -89.9998779296875 25.00019836425781 L -89.9998779296875 24.00019836425781 L -90.9998779296875 24.00019836425781 L -97.00009918212891 24.00019836425781 L -97.00009918212891 -5.999300956726074 L -90.9998779296875 -5.999300956726074 L -89.9998779296875 -5.999300956726074 L -89.9998779296875 -6.999300956726074 L -89.9998779296875 -14.00030136108398 L 143.9989929199219 -14.00030136108398 L 143.9989929199219 -8.999988555908203 L 143.9989929199219 -7.999988555908203 L 144.9989929199219 -7.999988555908203 L 150.0002136230469 -7.999988555908203 L 150.0002136230469 24.00019836425781 L 144.9989929199219 24.00019836425781 L 143.9989929199219 24.00019836425781 L 143.9989929199219 25.00019836425781 L 143.9989929199219 29.99963569641113 Z" stroke="none"/>
    <path d="M 142.9989929199219 28.9996337890625 L 142.9989929199219 23.00020027160645 L 149.0002288818359 23.00020027160645 L 149.0002288818359 -6.999999046325684 L 142.9989929199219 -6.999999046325684 L 142.9989929199219 -13.00029945373535 L -88.9998779296875 -13.00029945373535 L -88.9998779296875 -4.999299049377441 L -96.00007629394531 -4.999299049377441 L -96.00007629394531 23.00020027160645 L -88.9998779296875 23.00020027160645 L -88.9998779296875 28.9996337890625 L 142.9989929199219 28.9996337890625 M 144.9989929199219 30.9996337890625 L -90.9998779296875 30.9996337890625 L -90.9998779296875 25.00020027160645 L -98.00007629394531 25.00020027160645 L -98.00007629394531 -6.999299049377441 L -90.9998779296875 -6.999299049377441 L -90.9998779296875 -15.00029945373535 L 144.9989929199219 -15.00029945373535 L 144.9989929199219 -8.999999046325684 L 151.0002288818359 -8.999999046325684 L 151.0002288818359 25.00020027160645 L 144.9989929199219 25.00020027160645 L 144.9989929199219 30.9996337890625 Z" stroke="none" fill="red"/>
  </g>
</svg>
