<svg xmlns="http://www.w3.org/2000/svg" width="182.178" height="75.631" viewBox="0 0 182.178 75.631"><defs><style>.a{fill:#96582f;}.b{fill:#a56033;}.c{fill:#7f4c2a;}.d{fill:none;stroke:#4a2a14;stroke-miterlimit:10;stroke-width:8.33px;}</style></defs><g transform="translate(-0.035 -0.035)"><rect class="a" width="85.987" height="67.301" transform="translate(92.061 4.2)"/><path class="b" d="M173,38.28h7.651V17.2h31.855v8.9h26.858V40.727h19.675V55.3H235.408V77.735H222.448V48.014H203.554V62.588H189.6V52.855H173Z" transform="translate(-80.939 -6.233)"/><rect class="c" width="13.169" height="10.535" transform="translate(95.496 41.052)"/><rect class="c" width="13.169" height="10.535" transform="translate(118.711 19.191)"/><rect class="c" width="13.169" height="10.54" transform="translate(153.22 34.181)"/><line class="d" x1="86.039" transform="translate(92.061 26.478)"/><line class="d" x1="86.039" transform="translate(92.061 53.179)"/><line class="d" y2="22.278" transform="translate(133.597 4.2)"/><line class="d" y2="19.415" transform="translate(133.597 52.086)"/><line class="d" y2="25.244" transform="translate(161.236 26.842)"/><line class="d" y2="25.244" transform="translate(107.832 26.842)"/><rect class="d" width="85.987" height="67.301" transform="translate(92.061 4.2)"/><rect class="a" width="85.987" height="67.301" transform="translate(4.2 4.2)"/><path class="b" d="M4.2,38.28h7.651V17.2H43.706v8.9H70.564V40.727H90.187V55.3H66.556V77.735H53.648V48.014H34.754V62.588H20.8V52.855H4.2Z" transform="translate(0 -6.233)"/><rect class="c" width="13.169" height="10.535" transform="translate(7.635 41.052)"/><rect class="c" width="13.169" height="10.535" transform="translate(30.85 19.191)"/><rect class="c" width="13.169" height="10.54" transform="translate(65.307 34.181)"/><line class="d" x1="85.987" transform="translate(4.2 26.478)"/><line class="d" x1="85.987" transform="translate(4.2 53.179)"/><line class="d" y2="22.278" transform="translate(45.736 4.2)"/><line class="d" y2="19.415" transform="translate(45.736 52.086)"/><line class="d" y2="25.244" transform="translate(73.375 26.842)"/><line class="d" y2="25.244" transform="translate(19.919 26.842)"/><rect class="d" width="85.987" height="67.301" transform="translate(4.2 4.2)"/></g></svg>