<svg id="Card2" xmlns="http://www.w3.org/2000/svg" xmlns:xlink="http://www.w3.org/1999/xlink" width="101" height="90" viewBox="0 0 101 90">
  <defs>
    <linearGradient id="linear-gradient" x1="0.5" x2="0.5" y2="1.479" gradientUnits="objectBoundingBox">
      <stop offset="0" stop-color="#0e0c0c"/>
      <stop offset="1" stop-color="#c6d6ff"/>
    </linearGradient>
  </defs>
  <g id="Group_11" data-name="Group 11" transform="translate(-615.6 -399.247)">
    <path id="Path_106" data-name="Path 106" d="M2.85,5.48l1.8-2,2.1-.772L8.325.771l84.291.843L95.106,3.5l4.35,3.273-.519,75.961-3.2,2.4L92.25,87.741l-83.878.4L4.283,84.927,1.132,82.572.1,6.911Z" transform="translate(616 399.363)" fill="url(#linear-gradient)"/>
    <g id="Group_9" data-name="Group 9" transform="translate(615.6 399.247)">
      <g id="Group_5" data-name="Group 5" transform="translate(0 8)">
        <g id="Group_14" data-name="Group 14" transform="translate(2 74.067)">
          <rect id="Rectangle_6080" data-name="Rectangle 6080" width="2" height="2" transform="translate(0 -0.067)" fill="#c6d6ff"/>
          <rect id="Rectangle_6081" data-name="Rectangle 6081" width="2" height="2" transform="translate(2 1.933)" fill="#c6d6ff"/>
          <rect id="Rectangle_6082" data-name="Rectangle 6082" width="2" height="2" transform="translate(4 3.933)" fill="#c6d6ff"/>
        </g>
        <rect id="Rectangle_6077" data-name="Rectangle 6077" width="74" height="2" transform="translate(101 0) rotate(90)" fill="#c6d6ff"/>
        <rect id="Rectangle_6078" data-name="Rectangle 6078" width="74" height="2" transform="translate(2 0) rotate(90)" fill="#c6d6ff"/>
      </g>
      <g id="Group_7" data-name="Group 7" transform="translate(2 0)">
        <rect id="Rectangle_6074" data-name="Rectangle 6074" width="85" height="2" transform="translate(6 0)" fill="#c6d6ff"/>
        <g id="Group_4" data-name="Group 4" transform="translate(0 2)">
          <rect id="Rectangle_6080-2" data-name="Rectangle 6080" width="2" height="2" transform="translate(4)" fill="#c6d6ff"/>
          <rect id="Rectangle_6081-2" data-name="Rectangle 6081" width="2" height="2" transform="translate(2 2)" fill="#c6d6ff"/>
          <rect id="Rectangle_6082-2" data-name="Rectangle 6082" width="2" height="2" transform="translate(0 4)" fill="#c6d6ff"/>
        </g>
        <g id="Group_12" data-name="Group 12" transform="translate(91 2)">
          <rect id="Rectangle_6080-3" data-name="Rectangle 6080" width="2" height="2" fill="#c6d6ff"/>
          <rect id="Rectangle_6081-3" data-name="Rectangle 6081" width="2" height="2" transform="translate(2 2)" fill="#c6d6ff"/>
          <rect id="Rectangle_6082-3" data-name="Rectangle 6082" width="2" height="2" transform="translate(4 4)" fill="#c6d6ff"/>
        </g>
      </g>
      <g id="Group_8" data-name="Group 8" transform="translate(8 82.067)">
        <rect id="Rectangle_6079" data-name="Rectangle 6079" width="85" height="2" transform="translate(0 5.933)" fill="#c6d6ff"/>
        <g id="Group_13" data-name="Group 13" transform="translate(85)">
          <rect id="Rectangle_6080-4" data-name="Rectangle 6080" width="2" height="2" transform="translate(4 -0.067)" fill="#c6d6ff"/>
          <rect id="Rectangle_6081-4" data-name="Rectangle 6081" width="2" height="2" transform="translate(2 1.933)" fill="#c6d6ff"/>
          <rect id="Rectangle_6082-4" data-name="Rectangle 6082" width="2" height="2" transform="translate(0 3.933)" fill="#c6d6ff"/>
        </g>
      </g>
    </g>
  </g>
  <g id="Group_29" data-name="Group 29" transform="translate(-736.822 -530.959)">
    <g id="Group_28" data-name="Group 28">
      <g id="Group_25" data-name="Group 25" transform="translate(752.015 563.573) rotate(-135)">
        <rect id="Rectangle_6125" data-name="Rectangle 6125" width="4" height="4" transform="translate(11.34 3.355)" fill="red"/>
        <rect id="Rectangle_6126" data-name="Rectangle 6126" width="4" height="4" transform="translate(11.34 14.355)" fill="red"/>
        <rect id="Rectangle_6127" data-name="Rectangle 6127" width="4" height="4" transform="translate(3.34 4.355)" fill="red"/>
        <rect id="Rectangle_6130" data-name="Rectangle 6130" width="4" height="4" transform="translate(3.34 14.355)" fill="red"/>
        <rect id="Rectangle_6129" data-name="Rectangle 6129" width="3" height="6" transform="translate(0.34 8.355)" fill="red"/>
        <rect id="Rectangle_6131" data-name="Rectangle 6131" width="4" height="6" transform="translate(7.34 8.355)" fill="red"/>
        <rect id="Rectangle_6128" data-name="Rectangle 6128" width="4" height="3" transform="translate(7.34 0.355)" fill="red"/>
        <rect id="Rectangle_6132" data-name="Rectangle 6132" width="4" height="4" transform="translate(7.34 18.355)" fill="red"/>
      </g>
    </g>
  </g>
</svg>
