<svg xmlns="http://www.w3.org/2000/svg" width="111.7" height="57.085" viewBox="0 0 111.7 57.085"><defs><style>.a{fill:#b2e2f1;}.b{fill:#fff;}</style></defs><path class="a" d="M102.749,145.721v-1.9h-2.217v-1.9H98.294v-3.8H96.057V124.8H93.819v1.9H91.581v1.9H78.175v-1.9H75.959v-1.9H73.721v-1.9H71.483v1.9H69.245v3.8H67.007v1.9H64.791v1.9H62.553v1.921H58.077v1.9H40.217v-1.9H35.741V132.4H33.5v-1.9H31.266v-1.9H26.811v1.9H24.574v1.9H11.168v-1.9H8.93v-1.9H6.692v-3.8H4.476v-7.6H2.238v5.7H0v11.421H2.238v5.7H4.476v3.8H6.692v1.9H8.93v1.9h4.476v1.921h89.343v-1.921h2.238v-1.9Z" transform="translate(0 -92.458)"/><path class="b" d="M126.187,36.143v-3.8h-2.238v-1.9h-2.238v-1.9h-2.238v-1.9h-6.692V20.921h-2.238v-5.7h-2.238v-1.9h-2.217v-1.9h-2.238v-1.9h-2.238V7.6H83.732V9.521H81.515V5.7H79.277V3.8H74.8V1.9H72.564V0H59.158V1.9H54.7V3.8H52.466V5.7H50.228V7.6H47.99V9.521H45.774v5.7H30.13v1.9H25.654v1.9H23.417v1.9H21.2V32.343h2.217v3.8h2.238v1.9h2.238v1.9H41.3v-1.9h2.238v-1.9H47.99v1.9h2.238v1.9h2.238v1.921h4.476v1.9H74.8v-1.9h4.476V39.943h2.238v-1.9h2.217v-1.9H85.97v-3.8h2.238v-1.9h2.238v1.9h2.238v1.9H94.9v1.9h13.406v-1.9h2.238v-1.9h2.238V45.664h2.238v3.8h2.238v1.9h2.217v1.9h2.238v1.9h2.238v-3.8h2.238v-1.9h2.238V36.143Z" transform="translate(-16.724)"/></svg>