<svg xmlns="http://www.w3.org/2000/svg" width="1801.788" height="518" viewBox="0 0 1801.788 518"><defs><style>.a{fill:#77d0ee;}</style></defs><g transform="translate(3 -285)"><path class="a" d="M899.394,512V0h-6.508V41.4H880.772V0H861.211V27.131H829.535v41.4H801.622V0H779.239V39.99H748.5V0H727.1V37.115H700.992V0H670.257V17.146H627.409V0h-26.07V49.975H576.172V0H556.61V27.131h-36.3V59.959H485.849V14.271H462.563V38.527h-20.5V9.985H413.169V44.276H370.321V0H335.862V21.432H306.971V0H280.9V19.97H241.777v35.7H216.648V0H194.264V30H162.627V0H146.789V18.558H98.336V64.246H75.99V0H42.434V25.719H0V512Z" transform="translate(0 288)"/><path class="a" d="M899.394,512V0h-6.508V41.4H880.772V0H861.211V27.131H829.535v41.4H801.622V0H779.239V39.99H748.5V0H727.1V37.115H700.992V0H670.257V17.146H627.409V0h-26.07V49.975H576.172V0H556.61V27.131h-36.3V59.959H485.849V14.271H462.563V38.527h-20.5V9.985H413.169V44.276H370.321V0H335.862V21.432H306.971V0H280.9V19.97H241.777v35.7H216.648V0H194.264V30H162.627V0H146.789V18.558H98.336V64.246H75.99V0H42.434V25.719H0V512Z" transform="translate(896.394 288)"/></g></svg>