<svg xmlns="http://www.w3.org/2000/svg" width="38.454" height="28.722" viewBox="0 0 38.454 28.722">
  <path id="discord1-01" d="M660.973,379.7c2.281,0,4.553-.034,6.833.017.846.017,1.247-.248,1.153-1.119s.325-.957.974-.863c.846.111,1.008-.359,1-1.076s-.043-1.307-.982-1.2c-.726.085-1.068-.205-.991-.957s-.29-.974-.974-.888-1-.085-1-.854.478-.837,1.059-.811h1.076c1.238,0,1.2.009,1.435,1.247a1.06,1.06,0,0,0,.726.658,19.142,19.142,0,0,0,2.426.034c.53-.009.76.2.743.752-.017.752.026,1.495-.009,2.246-.026.606.188.94.82.846,1.008-.162,1.221.316,1.179,1.221-.068,1.221.017,2.451-.034,3.681-.026.735.239,1.085.982.991s1.033.231,1.016,1.016c-.043,2.545.008,5.091-.026,7.636-.008.743.162,1.17.991,1.068.666-.085.9.222.88.88-.034,1.2-.026,2.4,0,3.6.008.589-.188.931-.82.871-.828-.077-1.153.3-1.042,1.11.085.615-.2.863-.82.854-1.256-.034-2.52-.026-3.775-.009-.572.009-.914-.137-.905-.794s.325-.8.854-.735c1.068.137,1.025-.555,1.051-1.29s-.325-1.025-1.076-1.016q-3.007.051-6.022,0c-.709-.008-1.093.188-.991.957s-.248.94-.931.94c-3.143-.026-6.3-.026-9.438,0-.7,0-1.093-.188-1.008-.965s-.273-.94-.957-.931c-2.1.034-4.194.043-6.3,0-.9-.017-.931.5-.931,1.153s.017,1.239.922,1.153c.624-.06,1.221,0,1.025.863-.06.248-.393.623-.615.632-1.375.06-2.759.026-4.134.034-.5,0-.726-.239-.675-.717.085-.863-.214-1.324-1.145-1.247-.555.051-.726-.29-.717-.794.009-1.256.009-2.511-.008-3.775-.009-.581.265-.829.82-.769.88.1,1.059-.359,1.051-1.127-.026-2.52.017-5.031-.026-7.551-.009-.752.179-1.136,1-1.042s1-.316.982-1.025c-.026-1.349.017-2.7-.009-4.049-.017-.624.222-.905.837-.811.965.137,1.2-.359,1.136-1.2-.043-.624.009-1.256-.009-1.888s.222-.769.752-.752c.717.009,1.443-.017,2.161,0s1.093-.256,1.016-1,.29-1.008,1.008-.957a11.439,11.439,0,0,0,1.623,0c.641-.043.914.179.905.863s-.273.888-.871.811c-.82-.111-1.256.162-1.128,1.068.1.666-.3.786-.863.786a1.293,1.293,0,0,0-.991,2.007,1.165,1.165,0,0,0,.88.239c.717-.043,1.1.179.982.957s.307,1.059,1.093,1.051C656.421,379.673,658.7,379.7,660.973,379.7Zm-7.918,8.567c0,1.4.026,2.8-.009,4.2-.017.769.393.905,1.016.871s1.264.154,1.264-.8q-.017-4.254,0-8.507c0-.931-.658-.82-1.255-.829s-1.051.068-1.025.854C653.081,385.455,653.055,386.856,653.055,388.265Zm13.658-.1c0,1.443.026,2.878-.017,4.313-.026.777.393.888,1.008.863s1.256.094,1.256-.837c-.009-2.844,0-5.689-.009-8.524,0-.957-.735-.743-1.307-.777s-.965.111-.948.837C666.739,385.412,666.713,386.788,666.713,388.163Z" transform="translate(-641.798 -371.928)" fill="#fff"/>
</svg>
