<svg xmlns="http://www.w3.org/2000/svg" width="364" height="290" viewBox="0 0 364 290"><defs><style>.a{fill:#42a459;}</style></defs><g transform="translate(-616 -400)"><path class="a" d="M1.713,9.7l10.1-5.1,3.45-1.65L16.64,1.04,348.963,2.85l6,3.1,6.1,3.05,1.1,271.338-7.15,3.6-6.05,3.1-332.944.469-6.75-3.325-6.275-3.2L0,13.625Z" transform="translate(616 400)"/><g transform="translate(395 16)"><g transform="translate(221 393)"><rect width="272" height="3" transform="translate(364) rotate(90)"/><rect width="272" height="3" transform="translate(3) rotate(90)"/></g><g transform="translate(224 384)"><rect width="334" height="3" transform="translate(12)"/><g transform="translate(0 3)"><rect width="6" height="3" transform="translate(6)"/><rect width="6" height="3" transform="translate(0 3)"/><g transform="translate(346)"><rect width="6" height="3"/><rect width="6" height="3" transform="translate(6 3)"/></g></g></g><g transform="translate(224 665)"><rect width="334" height="3" transform="translate(12 6)"/><rect width="6" height="3" transform="translate(6 3)"/><rect width="6" height="3"/><g transform="translate(346)"><rect width="6" height="3" transform="translate(0 3)"/><rect width="6" height="3" transform="translate(6)"/></g></g></g></g></svg>