<svg xmlns="http://www.w3.org/2000/svg" width="35.667" height="18" viewBox="0 0 35.667 18"><defs><style>.a{fill:#fff;}.b,.c{stroke:none;}.c{fill:#4a2a14;}</style></defs><g class="a" transform="translate(-290.1 107) rotate(-90)"><path class="b" d="M 98.26190185546875 324.2666625976563 L 98 324.2666625976563 L 97.69048309326172 324.2666625976563 L 97.69048309326172 321.3381042480469 L 97.69048309326172 319.8381042480469 L 96.19048309326172 319.8381042480469 L 95.88095092773438 319.8381042480469 L 95.88095092773438 316.8619079589844 L 95.88095092773438 315.3619079589844 L 94.38095092773438 315.3619079589844 L 94.07142639160156 315.3619079589844 L 94.07142639160156 312.3857116699219 L 94.07142639160156 310.8857116699219 L 92.57142639160156 310.8857116699219 L 92.26190185546875 310.8857116699219 L 92.26190185546875 307.9571533203125 L 92.26190185546875 306.4571533203125 L 90.76190185546875 306.4571533203125 L 90.5 306.4571533203125 L 90.5 303.4809875488281 L 90.5 299.0523681640625 L 90.5 294.576171875 L 90.5 291.6000061035156 L 105.5 291.6000061035156 L 105.5 294.576171875 L 105.5 299.0523681640625 L 105.5 303.4809875488281 L 105.5 306.4571533203125 L 105.1904830932617 306.4571533203125 L 103.6904830932617 306.4571533203125 L 103.6904830932617 307.9571533203125 L 103.6904830932617 310.8857116699219 L 103.3809509277344 310.8857116699219 L 101.8809509277344 310.8857116699219 L 101.8809509277344 312.3857116699219 L 101.8809509277344 315.3619079589844 L 101.5714263916016 315.3619079589844 L 100.0714263916016 315.3619079589844 L 100.0714263916016 316.8619079589844 L 100.0714263916016 319.8381042480469 L 99.76190185546875 319.8381042480469 L 98.26190185546875 319.8381042480469 L 98.26190185546875 321.3381042480469 L 98.26190185546875 324.2666625976563 Z"/><path class="c" d="M 92 293.1000061035156 L 92 304.9571533203125 L 93.76190185546875 304.9571533203125 L 93.76190185546875 309.3857116699219 L 95.57142639160156 309.3857116699219 L 95.57142639160156 313.8619079589844 L 97.38095092773438 313.8619079589844 L 97.38095092773438 318.3381042480469 L 98.57142639160156 318.3381042480469 L 98.57142639160156 313.8619079589844 L 100.3809509277344 313.8619079589844 L 100.3809509277344 309.3857116699219 L 102.1904830932617 309.3857116699219 L 102.1904830932617 304.9571533203125 L 104 304.9571533203125 L 104 293.1000061035156 L 92 293.1000061035156 M 89 290.1000061035156 L 107 290.1000061035156 L 107 307.9571533203125 L 105.1904830932617 307.9571533203125 L 105.1904830932617 312.3857116699219 L 103.3809509277344 312.3857116699219 L 103.3809509277344 316.8619079589844 L 101.5714263916016 316.8619079589844 L 101.5714263916016 321.3381042480469 L 99.76190185546875 321.3381042480469 L 99.76190185546875 325.7666625976563 L 96.19048309326172 325.7666625976563 L 96.19048309326172 321.3381042480469 L 94.38095092773438 321.3381042480469 L 94.38095092773438 316.8619079589844 L 92.57142639160156 316.8619079589844 L 92.57142639160156 312.3857116699219 L 90.76190185546875 312.3857116699219 L 90.76190185546875 307.9571533203125 L 89 307.9571533203125 L 89 290.1000061035156 Z"/></g></svg>