<svg xmlns="http://www.w3.org/2000/svg" width="186.779" height="139.191" viewBox="0 0 186.779 139.191"><defs><style>.a{fill:#529351;}.b{fill:#98c261;}.c{fill:#4d8861;}.d{fill:#4f8762;}</style></defs><rect class="a" width="3.128" height="6.315" transform="translate(158.777 132.662)"/><rect class="a" width="3.128" height="6.315" transform="translate(168.111 126.307)"/><rect class="b" width="3.128" height="6.315" transform="translate(80.928 82.119)"/><rect class="a" width="3.128" height="6.315" transform="translate(6.206 69.459)"/><rect class="a" width="3.128" height="6.315" transform="translate(180.573 63.153)"/><rect class="c" width="3.128" height="6.32" transform="translate(164.983 56.848)"/><rect class="b" width="3.128" height="6.32" transform="translate(24.924 56.848)"/><rect class="a" width="3.128" height="6.315" transform="translate(15.59 50.543)"/><path class="a" d="M15.628,165.082h9.334v6.355H18.756v18.916h3.128v6.355H28.09v6.305h21.8v.2H152.609v-.2h12.462v-6.305H140.147v-6.355h-6.206v-6.305h-3.128v-6.305h-3.128v12.611h-6.206v6.355H96.556v-6.355H90.35v-6.305H87.222v-6.305H56.092v-6.305H49.886v-6.355H43.63V146.166H34.3V139.86H24.962v-6.355H21.884V127.2H18.756v6.305H15.628v6.355H12.5v18.916h3.128Z" transform="translate(-6.294 -64.047)"/><path class="a" d="M191.228,229H188.1v6.305h9.334V229h-6.206Z" transform="translate(-94.71 -115.304)"/><path class="a" d="M81.456,159.005V152.7H75.2v6.305h6.256Z" transform="translate(-37.864 -76.886)"/><path class="a" d="M241.378,146.255H269.43V139.9H238.3v6.355Z" transform="translate(-119.987 -70.441)"/><path class="a" d="M128.528,108.105h31.13V101.8H125.4v6.305Z" transform="translate(-63.14 -51.257)"/><path class="b" d="M300.906,203.5H294.7v12.66h9.334V203.5Z" transform="translate(-148.385 -102.464)"/><path class="b" d="M103.428,203.5H100.3v12.66h9.334V203.5h-6.206Z" transform="translate(-50.502 -102.464)"/><path class="b" d="M166.128,152.7H163v6.305h3.128v6.305h6.206V152.7h-6.206Z" transform="translate(-82.072 -76.886)"/><path class="b" d="M235.128,76.3H232v6.355h9.334V76.3h-6.206Z" transform="translate(-116.814 -38.418)"/><rect class="a" width="3.128" height="6.315" transform="translate(21.796 37.882)"/><rect class="b" width="3.128" height="6.315" transform="translate(127.647 25.271)"/><rect class="d" width="3.128" height="6.315" transform="translate(34.258 25.271)"/><rect class="a" width="3.128" height="6.315" transform="translate(46.72 18.966)"/><path class="b" d="M260.256,1236.1v-6.355H247.843v-25.271h-3.128v-6.305h-6.206v-6.305H213.586v6.305h-3.128v-6.305h3.128v-6.305h-3.128v-6.305h-6.206V1172.9H176.2v6.355h-3.078V1172.9H154.454v6.355H145.07v6.305h-3.078v12.611h-6.256v-6.305H120.2v6.305h-9.334v6.305h-3.128v6.355h-3.128v12.611h6.256v6.305H98.4v6.355h3.128v6.305h9.334v6.305H120.2v-6.305H126.4v6.305H120.2v18.966H126.4v6.305h6.256v-6.305h9.334v12.611h21.8v6.305h3.078v6.355h6.256v6.305H198v-6.305h6.256v-12.661h3.078v6.305h3.128v6.355h6.256v6.305h34.208v-6.305h6.256v-18.966h-3.128v-6.305h3.128v-6.355h6.206V1236.1Zm-59.132,0h31.13v6.305h-31.13Zm-37.336,12.611v-6.305h9.334v12.611h-9.334Zm-12.462-31.577h28v6.305H145.07v-6.305Zm77.8,56.848v-6.305h9.384v12.611h-9.384Zm-21.8-63.153H198v-6.355h9.334Zm-31.13,69.459h9.384v6.305H176.2Z" transform="translate(-82.81 -1166.594)"/><path class="a" d="M369.906,158.866V139.9H363.7v6.355h0v12.611h3.078V146.255h0v12.611H363.7v6.305h6.206v-6.305Z" transform="translate(-183.127 -70.441)"/><path class="a" d="M213.024,0H188.1V6.305h28V0Z" transform="translate(-94.71)"/><path class="a" d="M37.606,273.505v.2H56.274v-.2H37.606V267.2H31.4v6.305Z" transform="translate(-15.81 -134.538)"/><rect class="a" width="6.206" height="0.223" transform="translate(146.315 138.967)"/><path class="a" d="M326,267.2v6.305h6.256V267.2H326Z" transform="translate(-164.144 -134.538)"/><path class="a" d="M18.756,228.771V209.855h6.206V203.5H15.628v6.355H12.5v18.916h3.128v6.355h6.256v-6.355Z" transform="translate(-6.294 -102.464)"/><path class="a" d="M347.978,190.8v6.305H344.9v6.355h3.078v18.916H344.9v6.355h6.206v-6.355h3.128V203.46h-3.128v-6.355h3.128V190.8h-6.256Z" transform="translate(-173.661 -96.07)"/><path class="a" d="M6.206,165.171V139.9H3.128v6.355H0v18.916H3.128v6.305H9.334v-6.305Z" transform="translate(0 -70.441)"/><rect class="a" width="3.128" height="6.315" transform="translate(177.445 63.153)"/><path class="a" d="M18.756,107.877v-6.305H31.218V95.266H28.09V76.3H24.962v6.355H21.884V88.96h3.078v6.305H18.756v6.305H12.5v6.305h6.256Z" transform="translate(-6.294 -38.418)"/><path class="a" d="M344.806,114.5H338.6v6.305h9.334V114.5Z" transform="translate(-170.489 -57.652)"/><path class="a" d="M329.09,76.171V69.866h-3.128V57.205h-3.128V50.9H313.5v6.305h6.206v6.305h3.128V82.477h3.128V76.171Z" transform="translate(-157.851 -25.629)"/><path class="a" d="M50.106,69.905V63.6H43.9v6.305h6.206Z" transform="translate(-22.104 -32.023)"/><path class="a" d="M62.656,57.205V50.9H56.4v6.305h6.256Z" transform="translate(-28.398 -25.629)"/><path class="a" d="M275.63,25.36H256.962V19.005h-3.128V12.7H244.5v6.305h6.256V25.36h3.078v6.305h24.924V25.36Z" transform="translate(-123.108 -6.395)"/><path class="a" d="M78.328,38.2H75.2v6.305h9.384V38.2H78.328Z" transform="translate(-37.864 -19.234)"/><rect class="a" width="3.128" height="6.315" transform="translate(90.262 6.305)"/><path class="a" d="M119.062,12.7h-6.256v6.305h-3.078V25.36H106.6V37.971h6.206V25.36h3.128V19.005h9.334V12.7h-6.206Z" transform="translate(-53.674 -6.395)"/><path class="a" d="M156.706,6.305h6.256V0H150.5V6.305h6.206Z" transform="translate(-75.778)"/></svg>