<svg xmlns="http://www.w3.org/2000/svg" width="45.421" height="36.967" viewBox="0 0 45.421 36.967">
  <g id="twitter1" transform="translate(-1178.7)">
    <path id="Path_108" data-name="Path 108" d="M1037.512,174.745h4.659a.517.517,0,0,0,.517-.517v-1.711a.517.517,0,0,0-.517-.517h-4.653a.517.517,0,0,0-.517.517v1.711A.517.517,0,0,0,1037.512,174.745Z" transform="translate(167.112 -172)" fill="#fff"/>
    <path id="Path_109" data-name="Path 109" d="M548.245,669.089v-2.337a.253.253,0,0,0-.259-.253h-2.234a.253.253,0,0,0-.253.253v2.337a.253.253,0,0,0,.253.253h2.234A.258.258,0,0,0,548.245,669.089Z" transform="translate(633.2 -640.932)" fill="#fff"/>
    <path id="Path_110" data-name="Path 110" d="M1366.253,445.843h2.234a.259.259,0,0,0,.258-.258v-2.332a.254.254,0,0,0-.258-.253h-2.234a.253.253,0,0,0-.253.253v2.337A.253.253,0,0,0,1366.253,445.843Z" transform="translate(-144.878 -428.988)" fill="#fff"/>
    <path id="Path_111" data-name="Path 111" d="M639.115,241.967H636.83a.119.119,0,0,1-.119-.119V239.63a.5.5,0,0,0-.5-.5h-2.223a.119.119,0,0,1-.119-.119v-5.041a.522.522,0,0,0-.522-.522h-2.2a.119.119,0,0,1-.119-.119v-2.611a.119.119,0,0,0-.119-.119H628.3a.114.114,0,0,1-.114-.119v-2.161a.558.558,0,0,0-.558-.558h-7.859a.119.119,0,0,1-.119-.119v-2.2a.543.543,0,0,0-.543-.543h-1.742a.553.553,0,0,0-.553.553v5.015a.119.119,0,0,1-.119.119h-2.6a.114.114,0,0,0-.119.114v5.444a.119.119,0,0,1-.119.119H608.4a.119.119,0,0,1-.119-.119v-2.177a.522.522,0,0,0-.522-.522h-5.041a.119.119,0,0,1-.119-.119v-2.171a.543.543,0,0,0-.548-.548h-2.182a.119.119,0,0,1-.119-.119v-2.182a.543.543,0,0,0-.543-.543h-1.722a.564.564,0,0,0-.563.564v7.4a.553.553,0,0,0,.548.548h2.151a.119.119,0,0,1,.119.119v5.046a.517.517,0,0,0,.517.517h2.213a.114.114,0,0,1,.114.119v2.192a.543.543,0,0,0,.543.538h2.182a.114.114,0,0,1,.114.119v2.182a.543.543,0,0,0,.543.538h2.171c.067,0,.119.052.119.248v2.492a.114.114,0,0,1-.114.114H597.438a.543.543,0,0,0-.538.538v1.748a.564.564,0,0,0,.558.558h2.161a.119.119,0,0,1,.119.119v2.177a.538.538,0,0,0,.538.538h5.041a.119.119,0,0,1,.119.114v2.285a.558.558,0,0,0,.558.558h15.94a.564.564,0,0,0,.564-.564v-2.259a.119.119,0,0,1,.119-.119h5.015a.543.543,0,0,0,.543-.543v-2.177a.119.119,0,0,1,.119-.119h2.2a.527.527,0,0,0,.527-.527v-2.2a.119.119,0,0,1,.119-.119H633.3a.558.558,0,0,0,.558-.564v-5.015a.119.119,0,0,1,.119-.119H639.1a.558.558,0,0,0,.558-.558v-1.737a.543.543,0,0,0-.548-.548Zm-10.945-6.215a.517.517,0,0,1-.517.517h-1.778a.517.517,0,0,1-.517-.517v-1.779a.517.517,0,0,1,.517-.517h1.778a.517.517,0,0,1,.517.517Z" transform="translate(584.458 -222.165)" fill="#fff"/>
  </g>
</svg>
